# xmcd
#
# Track frame offsets:
#	150
#	17439
#	38100
#	57753
#	79557
#	97499
#	116629
#	135742
#	162005
#	176931
#
# Disc length: 2608 seconds
#
# Revision: 1
# Processed by: cddbd v1.4PL0 Copyright (c) Steve Scherf et al.
# Submitted via: audiograbber 1.81.03
#
DISCID=7e0a2e0a
DTITLE=James And Pothik Nobi - Pagla Hawa
DYEAR=2003
DGENRE=Pop
TTITLE0=James - Ore Ore Hawa
TTITLE1=James - Ashecho Boshecho Bhobe
TTITLE2=James - Prem Jomunar Jole
TTITLE3=James - Nodi
TTITLE4=James - Juari
TTITLE5=Pothik Nobi - Makkhi Gira
TTITLE6=Pothik Nobi - Ghore Ghore Prem
TTITLE7=Pothik Nobi - Brikkho Jemon
TTITLE8=Pothik Nobi - Chera Polethin
TTITLE9=Pothik Nobi - Dhonno Dhonno
EXTD=
EXTT0=
EXTT1=
EXTT2=
EXTT3=
EXTT4=
EXTT5=
EXTT6=
EXTT7=
EXTT8=
EXTT9=
PLAYORDER=
